<mxfile host="app.diagrams.net" modified="2023-07-19T20:53:04.525Z" agent="Mozilla/5.0 (Windows NT 10.0; Win64; x64) AppleWebKit/537.36 (KHTML, like Gecko) Chrome/114.0.0.0 Safari/537.36" etag="wUL-4dqC194iiZgFf_Jv" version="21.6.3" type="device">
  <diagram name="Page-1" id="PX9vQjMoHaqGyErzlOls">
    <mxGraphModel dx="2082" dy="472" grid="1" gridSize="10" guides="1" tooltips="1" connect="1" arrows="1" fold="1" page="1" pageScale="1" pageWidth="850" pageHeight="1100" math="0" shadow="0">
      <root>
        <mxCell id="0" />
        <mxCell id="1" parent="0" />
        <mxCell id="1njUhdj8zAszlPwYWnUx-1" value="Object" style="rounded=1;whiteSpace=wrap;html=1;fillColor=#CCFFE6;" vertex="1" parent="1">
          <mxGeometry x="350" y="160" width="120" height="60" as="geometry" />
        </mxCell>
        <mxCell id="1njUhdj8zAszlPwYWnUx-2" value="LocalKey" style="rounded=1;whiteSpace=wrap;html=1;fillColor=#CCCCFF;" vertex="1" parent="1">
          <mxGeometry x="90" y="290" width="120" height="60" as="geometry" />
        </mxCell>
        <mxCell id="1njUhdj8zAszlPwYWnUx-3" value="GlobalKey" style="rounded=1;whiteSpace=wrap;html=1;fillColor=#FFCCE6;" vertex="1" parent="1">
          <mxGeometry x="540" y="290" width="120" height="60" as="geometry" />
        </mxCell>
        <mxCell id="1njUhdj8zAszlPwYWnUx-4" value="LabledGlobalKey" style="rounded=1;whiteSpace=wrap;html=1;fillColor=#E6D0DE;" vertex="1" parent="1">
          <mxGeometry x="630" y="451" width="120" height="60" as="geometry" />
        </mxCell>
        <mxCell id="1njUhdj8zAszlPwYWnUx-5" value="UniqueKey" style="rounded=1;whiteSpace=wrap;html=1;fillColor=#C3ABD0;" vertex="1" parent="1">
          <mxGeometry x="90" y="451" width="120" height="60" as="geometry" />
        </mxCell>
        <mxCell id="1njUhdj8zAszlPwYWnUx-6" value="ValueKey" style="rounded=1;whiteSpace=wrap;html=1;fillColor=#C3ABD0;" vertex="1" parent="1">
          <mxGeometry x="240" y="451" width="120" height="60" as="geometry" />
        </mxCell>
        <mxCell id="1njUhdj8zAszlPwYWnUx-7" value="ObjectKey" style="rounded=1;whiteSpace=wrap;html=1;fillColor=#C3ABD0;" vertex="1" parent="1">
          <mxGeometry x="-60" y="451" width="120" height="60" as="geometry" />
        </mxCell>
        <mxCell id="1njUhdj8zAszlPwYWnUx-8" value="GlobalObjectKey" style="rounded=1;whiteSpace=wrap;html=1;fillColor=#E6D0DE;" vertex="1" parent="1">
          <mxGeometry x="460" y="451" width="120" height="60" as="geometry" />
        </mxCell>
        <mxCell id="1njUhdj8zAszlPwYWnUx-10" value="PageStorageKey" style="rounded=1;whiteSpace=wrap;html=1;fillColor=#A9C4EB;" vertex="1" parent="1">
          <mxGeometry x="240" y="580" width="120" height="60" as="geometry" />
        </mxCell>
        <mxCell id="1njUhdj8zAszlPwYWnUx-11" value="" style="endArrow=classic;html=1;rounded=0;entryX=0.5;entryY=0;entryDx=0;entryDy=0;exitX=0.5;exitY=1;exitDx=0;exitDy=0;" edge="1" parent="1" source="1njUhdj8zAszlPwYWnUx-1" target="1njUhdj8zAszlPwYWnUx-2">
          <mxGeometry width="50" height="50" relative="1" as="geometry">
            <mxPoint x="400" y="400" as="sourcePoint" />
            <mxPoint x="450" y="350" as="targetPoint" />
          </mxGeometry>
        </mxCell>
        <mxCell id="1njUhdj8zAszlPwYWnUx-12" value="" style="endArrow=classic;html=1;rounded=0;exitX=0.5;exitY=1;exitDx=0;exitDy=0;entryX=0.5;entryY=0;entryDx=0;entryDy=0;" edge="1" parent="1" source="1njUhdj8zAszlPwYWnUx-1" target="1njUhdj8zAszlPwYWnUx-3">
          <mxGeometry width="50" height="50" relative="1" as="geometry">
            <mxPoint x="400" y="400" as="sourcePoint" />
            <mxPoint x="450" y="350" as="targetPoint" />
          </mxGeometry>
        </mxCell>
        <mxCell id="1njUhdj8zAszlPwYWnUx-13" value="" style="endArrow=classic;html=1;rounded=0;exitX=0.5;exitY=1;exitDx=0;exitDy=0;" edge="1" parent="1" source="1njUhdj8zAszlPwYWnUx-2">
          <mxGeometry width="50" height="50" relative="1" as="geometry">
            <mxPoint x="400" y="400" as="sourcePoint" />
            <mxPoint y="450" as="targetPoint" />
          </mxGeometry>
        </mxCell>
        <mxCell id="1njUhdj8zAszlPwYWnUx-14" value="" style="endArrow=classic;html=1;rounded=0;exitX=0.5;exitY=1;exitDx=0;exitDy=0;" edge="1" parent="1" source="1njUhdj8zAszlPwYWnUx-2">
          <mxGeometry width="50" height="50" relative="1" as="geometry">
            <mxPoint x="410" y="400" as="sourcePoint" />
            <mxPoint x="300" y="450" as="targetPoint" />
          </mxGeometry>
        </mxCell>
        <mxCell id="1njUhdj8zAszlPwYWnUx-15" value="" style="endArrow=classic;html=1;rounded=0;" edge="1" parent="1">
          <mxGeometry width="50" height="50" relative="1" as="geometry">
            <mxPoint x="150" y="350" as="sourcePoint" />
            <mxPoint x="150" y="450" as="targetPoint" />
          </mxGeometry>
        </mxCell>
        <mxCell id="1njUhdj8zAszlPwYWnUx-16" value="" style="endArrow=classic;html=1;rounded=0;exitX=0.5;exitY=1;exitDx=0;exitDy=0;" edge="1" parent="1" source="1njUhdj8zAszlPwYWnUx-3">
          <mxGeometry width="50" height="50" relative="1" as="geometry">
            <mxPoint x="410" y="400" as="sourcePoint" />
            <mxPoint x="520" y="450" as="targetPoint" />
          </mxGeometry>
        </mxCell>
        <mxCell id="1njUhdj8zAszlPwYWnUx-17" value="" style="endArrow=classic;html=1;rounded=0;exitX=0.5;exitY=1;exitDx=0;exitDy=0;" edge="1" parent="1" source="1njUhdj8zAszlPwYWnUx-3">
          <mxGeometry width="50" height="50" relative="1" as="geometry">
            <mxPoint x="410" y="400" as="sourcePoint" />
            <mxPoint x="690" y="450" as="targetPoint" />
          </mxGeometry>
        </mxCell>
        <mxCell id="1njUhdj8zAszlPwYWnUx-18" value="" style="endArrow=classic;html=1;rounded=0;exitX=0.5;exitY=1;exitDx=0;exitDy=0;entryX=0.5;entryY=0;entryDx=0;entryDy=0;" edge="1" parent="1" source="1njUhdj8zAszlPwYWnUx-6" target="1njUhdj8zAszlPwYWnUx-10">
          <mxGeometry width="50" height="50" relative="1" as="geometry">
            <mxPoint x="410" y="400" as="sourcePoint" />
            <mxPoint x="460" y="350" as="targetPoint" />
          </mxGeometry>
        </mxCell>
      </root>
    </mxGraphModel>
  </diagram>
</mxfile>
